<svg width="25" height="25" viewBox="0 0 25 25" fill="none" xmlns="http://www.w3.org/2000/svg">
<path fill-rule="evenodd" clip-rule="evenodd" d="M20.7792 0C19.0592 0 17.6047 1.18375 17.1845 2.773L16.7218 2.558C16.6392 2.51962 16.5493 2.49974 16.4583 2.49974C16.3672 2.49974 16.2773 2.51962 16.1947 2.558L8.5415 6.11325L0.88825 2.55825C0.79302 2.51402 0.688183 2.4945 0.583418 2.50149C0.478652 2.50848 0.377335 2.54174 0.28882 2.59822C0.200305 2.6547 0.127445 2.73256 0.0769661 2.82463C0.0264876 2.9167 1.76331e-05 3.02 1.68564e-08 3.125V20.6968C-2.76533e-05 20.8159 0.0340111 20.9326 0.0981041 21.0331C0.162197 21.1335 0.253673 21.2136 0.36175 21.2638L8.27825 24.941C8.36079 24.9794 8.45072 24.9993 8.54175 24.9993C8.63278 24.9993 8.72271 24.9794 8.80525 24.941L16.4585 21.386L24.1117 24.941C24.526 25.1332 25 24.831 25 24.3745V6.80275C25 6.68359 24.966 6.5669 24.9019 6.46644C24.8378 6.36598 24.7463 6.28594 24.6383 6.23575L23.8307 5.86025L24.0835 5.42975C24.141 5.3255 24.1868 5.2145 24.226 5.101C24.4067 4.65967 24.4998 4.18739 24.5 3.7105C24.5 1.67125 22.8245 0 20.7792 0ZM20.7792 1.73825C21.8805 1.73825 22.7563 2.61225 22.7563 3.7105C22.7563 4.8085 21.8805 5.68175 20.7792 5.68175C19.678 5.68175 18.8022 4.8085 18.8022 3.7105C18.8022 2.61225 19.678 1.73825 20.7792 1.73825ZM16.7377 3.94375L17.082 4.104C17.1489 4.72876 17.3748 5.32594 17.7383 5.8385L20.3253 10.311C20.6877 10.7845 20.9287 10.6945 21.23 10.286L23.1943 6.94275L23.75 7.20125V23.395L16.8305 20.1807L16.774 10.2618C16.876 10.2838 16.9778 10.305 17.08 10.3293L17.31 9.3565C17.13 9.31395 16.9493 9.27453 16.768 9.23825L16.7377 3.94375ZM15.9882 4.03225L16.017 9.11625C15.7588 9.08092 15.4991 9.05747 15.2388 9.046L15.2017 10.045C15.4738 10.055 15.748 10.0845 16.023 10.1245L16.0805 20.183L8.9115 23.5138L8.81925 7.36275L15.9882 4.03225ZM1.25 4.1045L8.06875 7.272L8.1615 23.5088L1.25 20.2978V4.1045ZM14.1357 9.11425C13.7915 9.176 13.4392 9.28625 13.1112 9.477C12.7189 9.70416 12.3962 10.0344 12.1783 10.432L13.0538 10.915C13.1842 10.6775 13.3765 10.4797 13.6103 10.3427L13.6117 10.3418L13.6132 10.3407C13.815 10.2232 14.0553 10.1442 14.3125 10.0983L14.1357 9.11425ZM18.3022 9.622L18.019 10.5805C18.6447 10.7655 19.2645 10.978 19.8808 11.208L20.2305 10.271C19.5975 10.035 18.9555 9.815 18.3022 9.622ZM11.8018 11.521L11.7942 11.5605L11.7935 11.564C11.6687 12.2718 11.682 12.9683 11.71 13.6302L12.709 13.5878C12.6817 12.9455 12.676 12.324 12.7782 11.7408L12.7843 11.7095L11.8018 11.521ZM12.7685 14.5735L11.771 14.641C11.816 15.3082 11.864 15.9623 11.8623 16.6035L12.8623 16.606C12.8643 15.9135 12.8135 15.2365 12.7685 14.5735ZM11.8125 17.546C11.785 17.7843 11.744 18.016 11.684 18.2385L11.6835 18.2397L11.683 18.2418C11.5955 18.5755 11.4482 18.8845 11.2428 19.1265L12.0045 19.774C12.3265 19.3953 12.5308 18.9495 12.6495 18.4985L12.65 18.497C12.725 18.218 12.7738 17.937 12.8057 17.6595L11.8125 17.546ZM3.3705 18.5205L2.9215 19.414C3.5415 19.7257 4.18275 19.9835 4.8285 20.2065L5.15475 19.2612C4.541 19.0495 3.94175 18.8075 3.3705 18.5205ZM6.0795 19.5487L5.8135 20.5128C6.475 20.6955 7.155 20.8407 7.85 20.919L7.9615 19.9252C7.33125 19.8545 6.70275 19.721 6.0795 19.5487ZM10.6147 19.6192C10.1167 19.8742 9.5155 19.9685 8.89725 19.976L8.90975 20.976C9.61825 20.9675 10.3757 20.865 11.0702 20.5093L10.6147 19.6192Z" fill="white"/>
</svg>
