<svg width="17" height="22" viewBox="0 0 17 22" fill="none" xmlns="http://www.w3.org/2000/svg">
<path d="M8.39844 4.6875C7.66448 4.6875 6.94701 4.90514 6.33675 5.31291C5.72649 5.72067 5.25085 6.30024 4.96998 6.97832C4.68911 7.65641 4.61562 8.40255 4.7588 9.12241C4.90199 9.84226 5.25542 10.5035 5.77441 11.0225C6.29339 11.5415 6.95462 11.8949 7.67447 12.0381C8.39432 12.1813 9.14047 12.1078 9.81855 11.8269C10.4966 11.546 11.0762 11.0704 11.484 10.4601C11.8917 9.84986 12.1094 9.13239 12.1094 8.39844C12.1094 7.41424 11.7184 6.47034 11.0225 5.77441C10.3265 5.07847 9.38264 4.6875 8.39844 4.6875ZM8.39844 10.9375C7.89626 10.9375 7.40536 10.7886 6.98781 10.5096C6.57026 10.2306 6.24483 9.83405 6.05265 9.37009C5.86047 8.90614 5.81019 8.39562 5.90816 7.90309C6.00613 7.41056 6.24796 6.95814 6.60305 6.60305C6.95814 6.24796 7.41056 6.00613 7.90309 5.90816C8.39562 5.81019 8.90614 5.86047 9.37009 6.05265C9.83405 6.24483 10.2306 6.57026 10.5096 6.98781C10.7886 7.40536 10.9375 7.89626 10.9375 8.39844C10.9375 9.07184 10.67 9.71766 10.1938 10.1938C9.71766 10.67 9.07184 10.9375 8.39844 10.9375ZM8.39844 0C6.17183 0.00258458 4.03715 0.888247 2.4627 2.4627C0.888247 4.03715 0.00258458 6.17183 0 8.39844C0 11.417 1.40039 14.623 4.0498 17.6699C5.24561 19.0519 6.59145 20.2965 8.0625 21.3809C8.16097 21.4498 8.27825 21.4867 8.39844 21.4867C8.51862 21.4867 8.6359 21.4498 8.73438 21.3809C10.2054 20.2965 11.5513 19.0519 12.7471 17.6699C15.3965 14.623 16.7969 11.4199 16.7969 8.39844C16.7943 6.17183 15.9086 4.03715 14.3342 2.4627C12.7597 0.888247 10.625 0.00258458 8.39844 0ZM8.39844 20.167C6.93359 19.0361 1.17188 14.2207 1.17188 8.39844C1.17188 6.48183 1.93324 4.64373 3.28849 3.28849C4.64373 1.93324 6.48183 1.17188 8.39844 1.17188C10.315 1.17188 12.1531 1.93324 13.5084 3.28849C14.8636 4.64373 15.625 6.48183 15.625 8.39844C15.625 14.2207 9.86328 19.0361 8.39844 20.167Z" fill="white"/>
</svg>
