<svg width="33" height="29" viewBox="0 0 33 29" fill="none" xmlns="http://www.w3.org/2000/svg">
<path d="M30.6045 25C31.0077 25.0001 31.3946 25.1602 31.6797 25.4453C31.9648 25.7304 32.1249 26.1173 32.125 26.5205C32.125 26.9239 31.9649 27.3115 31.6797 27.5967C31.3946 27.8817 31.0076 28.0419 30.6045 28.042H2.02051C1.61735 28.0419 1.23043 27.8817 0.945312 27.5967C0.660101 27.3115 0.5 26.9239 0.5 26.5205C0.500086 26.1173 0.660178 25.7304 0.945312 25.4453C1.23045 25.1602 1.61728 25.0001 2.02051 25H30.6045ZM30.6045 12.75C31.0077 12.7501 31.3946 12.9102 31.6797 13.1953C31.9648 13.4804 32.1249 13.8673 32.125 14.2705C32.125 14.6739 31.9649 15.0615 31.6797 15.3467C31.3946 15.6317 31.0076 15.7919 30.6045 15.792H2.02051C1.61735 15.7919 1.23043 15.6317 0.945312 15.3467C0.660101 15.0615 0.5 14.6739 0.5 14.2705C0.500086 13.8673 0.660178 13.4804 0.945312 13.1953C1.23045 12.9102 1.61728 12.7501 2.02051 12.75H30.6045ZM30.6045 0.5C31.0077 0.500086 31.3946 0.660178 31.6797 0.945312C31.9648 1.23045 32.1249 1.61728 32.125 2.02051C32.125 2.42386 31.9649 2.81147 31.6797 3.09668C31.3946 3.38171 31.0076 3.54191 30.6045 3.54199H2.02051C1.61735 3.54191 1.23043 3.38171 0.945312 3.09668C0.660101 2.81147 0.5 2.42386 0.5 2.02051C0.500086 1.61727 0.660178 1.23045 0.945312 0.945312C1.23045 0.660178 1.61727 0.500086 2.02051 0.5H30.6045Z" fill="white" stroke="white"/>
</svg>
