<svg width="25" height="25" viewBox="0 0 25 25" fill="none" xmlns="http://www.w3.org/2000/svg">
<path d="M8.8646 13C8.65858 13 8.45719 13.0611 8.28589 13.1756C8.11458 13.29 7.98107 13.4527 7.90223 13.643C7.82339 13.8334 7.80276 14.0428 7.84295 14.2449C7.88315 14.447 7.98236 14.6326 8.12803 14.7782C8.27371 14.9239 8.45932 15.0231 8.66139 15.0633C8.86345 15.1035 9.07289 15.0829 9.26323 15.004C9.45357 14.9252 9.61626 14.7917 9.73072 14.6204C9.84518 14.4491 9.90627 14.2477 9.90627 14.0417C9.90627 13.7654 9.79652 13.5004 9.60117 13.3051C9.40582 13.1097 9.14087 13 8.8646 13ZM8.8646 8.33333C8.65858 8.33333 8.45719 8.39443 8.28589 8.50889C8.11458 8.62335 7.98107 8.78603 7.90223 8.97637C7.82339 9.16671 7.80276 9.37616 7.84295 9.57822C7.88315 9.78028 7.98236 9.96589 8.12803 10.1116C8.27371 10.2572 8.45932 10.3565 8.66139 10.3967C8.86345 10.4368 9.07289 10.4162 9.26323 10.3374C9.45357 10.2585 9.61626 10.125 9.73072 9.95372C9.84518 9.78242 9.90627 9.58102 9.90627 9.375C9.90627 9.09873 9.79652 8.83378 9.60117 8.63843C9.40582 8.44308 9.14087 8.33333 8.8646 8.33333ZM12.5 10.4167C12.2238 10.4167 11.9588 10.5264 11.7635 10.7218C11.5681 10.9171 11.4584 11.1821 11.4584 11.4583V12.5C11.4584 12.7763 11.5681 13.0412 11.7635 13.2366C11.9588 13.4319 12.2238 13.5417 12.5 13.5417C12.7763 13.5417 13.0412 13.4319 13.2366 13.2366C13.4319 13.0412 13.5417 12.7763 13.5417 12.5V11.4583C13.5417 11.1821 13.4319 10.9171 13.2366 10.7218C13.0412 10.5264 12.7763 10.4167 12.5 10.4167ZM21.3542 8.92708C20.9948 8.72033 20.5979 8.58714 20.1866 8.53527C19.7753 8.48341 19.3578 8.51391 18.9584 8.625C18.5427 8.73635 18.1555 8.93523 17.8229 9.20833L5.7396 2.21875C5.58125 2.12732 5.40162 2.07919 5.21877 2.07919C5.03592 2.07919 4.85629 2.12732 4.69794 2.21875C4.53704 2.30919 4.40305 2.44077 4.30971 2.6C4.21636 2.75924 4.16701 2.94042 4.16669 3.125V16.8438C3.55195 17.0511 3.01895 17.4483 2.64452 17.9781C2.2701 18.5079 2.0736 19.143 2.08335 19.7917C2.08306 20.6062 2.40084 21.3887 2.96899 21.9724C3.53714 22.5561 4.31075 22.8949 5.12502 22.9167H5.72919C9.14246 22.9086 12.4928 21.9976 15.4401 20.2761C18.3875 18.5545 20.8268 16.0837 22.5104 13.1146C22.8993 12.4042 22.9972 11.5705 22.7834 10.7894C22.5697 10.0082 22.061 9.34055 21.3646 8.92708H21.3542ZM6.25002 4.92708L16.5521 10.875C15.4092 12.5804 13.8813 13.9932 12.0917 14.9993C10.3021 16.0054 8.30103 16.5765 6.25002 16.6667V4.92708ZM20.6979 12.0938C19.1515 14.8184 16.8931 17.0711 14.1646 18.6106C11.436 20.1501 8.3401 20.9185 5.20835 20.8333C4.93209 20.8333 4.66714 20.7236 4.47178 20.5282C4.27643 20.3329 4.16669 20.0679 4.16669 19.7917C4.16587 19.6521 4.19312 19.5138 4.2468 19.3849C4.30048 19.2561 4.37951 19.1394 4.47919 19.0417C4.67488 18.853 4.93655 18.7484 5.20835 18.75H5.7396C8.41431 18.7489 11.0408 18.0376 13.3504 16.6887C15.6601 15.3399 17.5702 13.4019 18.8854 11.0729C18.9487 10.9587 19.0351 10.8589 19.1391 10.7799C19.2431 10.701 19.3625 10.6447 19.4896 10.6146C19.7523 10.5425 20.0327 10.5761 20.2709 10.7083C20.5098 10.8368 20.6893 11.0534 20.771 11.3122C20.8527 11.5709 20.8302 11.8513 20.7084 12.0938H20.6979Z" fill="white"/>
</svg>
