<svg width="19" height="19" viewBox="0 0 19 19" fill="none" xmlns="http://www.w3.org/2000/svg">
<g clip-path="url(#clip0_109_3356)">
<path d="M4.35409 6.33333V12.2708H4.552C4.552 12.2708 5.35634 11.3588 5.7395 10.6875C6.23034 9.82696 6.63013 8.70833 6.63013 8.70833H6.82804C6.82804 8.70833 7.22784 9.82696 7.71867 10.6875C8.10184 11.3588 8.90617 12.2708 8.90617 12.2708H9.10409V6.33333M14.6458 8.3125V7.52083C14.6458 7.31087 14.5623 7.10951 14.4139 6.96104C14.2654 6.81258 14.064 6.72917 13.8541 6.72917H11.8749C11.665 6.72917 11.4636 6.81258 11.3151 6.96104C11.1667 7.10951 11.0833 7.31087 11.0833 7.52083V11.4792C11.0833 11.6891 11.1667 11.8905 11.3151 12.039C11.4636 12.1874 11.665 12.2708 11.8749 12.2708H13.8541C14.064 12.2708 14.2654 12.1874 14.4139 12.039C14.5623 11.8905 14.6458 11.6891 14.6458 11.4792V10.6875M9.49992 18.6042C4.47204 18.6042 0.395752 14.5279 0.395752 9.5C0.395752 4.47213 4.47204 0.395834 9.49992 0.395834C14.5278 0.395834 18.6041 4.47213 18.6041 9.5C18.6041 14.5279 14.5278 18.6042 9.49992 18.6042Z" stroke="white"/>
</g>
<defs>
<clipPath id="clip0_109_3356">
<rect width="19" height="19" fill="white"/>
</clipPath>
</defs>
</svg>
